<?xml version="1.0" standalone="no"?>
<!DOCTYPE svg PUBLIC "-//W3C//DTD SVG 20010904//EN"
 "http://www.w3.org/TR/2001/REC-SVG-20010904/DTD/svg10.dtd">
<svg version="1.0" xmlns="http://www.w3.org/2000/svg"
 width="753.000000pt" height="753.000000pt" viewBox="0 0 753.000000 753.000000"
 preserveAspectRatio="xMidYMid meet">
<metadata>
Created by potrace 1.14, written by Peter Selinger 2001-2017
</metadata>
<g transform="translate(0.000000,753.000000) scale(0.100000,-0.100000)"
fill="#000000" stroke="none">
<path d="M5440 7519 c-36 -5 -85 -11 -110 -14 -55 -7 -297 -45 -325 -52 -11
-2 -40 -8 -65 -12 -25 -5 -119 -25 -210 -45 -91 -21 -173 -39 -183 -41 -10 -2
-27 -7 -37 -10 -10 -3 -27 -8 -38 -10 -45 -8 -451 -118 -632 -170 -107 -31
-199 -58 -205 -59 -5 -2 -17 -6 -25 -9 -8 -3 -24 -7 -35 -10 -11 -3 -130 -39
-265 -80 -543 -166 -972 -286 -1110 -311 -14 -2 -54 -11 -90 -19 -36 -9 -83
-18 -105 -21 -23 -4 -52 -9 -65 -12 -48 -10 -266 -12 -320 -2 -188 34 -318
129 -422 311 -26 45 -51 88 -55 94 -6 10 -23 7 -73 -11 -342 -126 -568 -343
-759 -726 -95 -191 -167 -409 -207 -625 -9 -49 -18 -97 -19 -106 -6 -30 -14
-84 -20 -134 -3 -27 -8 -63 -10 -80 -2 -16 -7 -64 -10 -105 -4 -41 -8 -91 -10
-110 -6 -61 -17 -361 -17 -470 -1 -129 11 -502 17 -550 4 -34 10 -111 20 -255
3 -38 7 -86 10 -105 2 -19 7 -64 10 -100 3 -36 8 -81 10 -100 2 -19 9 -80 15
-135 6 -55 13 -111 15 -125 2 -14 7 -52 10 -85 4 -33 8 -71 10 -85 3 -14 7
-43 10 -65 3 -22 10 -62 15 -90 5 -27 12 -61 14 -75 12 -71 42 -205 86 -385
26 -110 54 -227 61 -260 6 -33 15 -64 19 -68 9 -11 74 106 130 233 110 249
288 773 370 1088 l11 43 72 -5 c189 -16 250 -20 437 -31 41 -2 111 -7 155 -9
148 -10 259 -16 350 -21 132 -7 254 -15 305 -20 25 -3 77 -7 115 -10 39 -2
106 -8 150 -12 160 -15 752 -6 825 12 8 2 53 7 100 10 47 4 88 9 91 11 3 1 30
6 60 9 30 3 77 10 104 15 28 5 65 12 83 15 18 3 65 12 105 21 39 8 80 17 89
19 60 13 260 70 353 101 426 141 801 336 1172 610 61 45 124 93 139 106 98 81
179 153 182 160 2 4 7 8 12 8 6 0 -285 -746 -330 -845 -5 -11 -24 -59 -43
-107 l-35 -87 22 -20 21 -20 504 181 504 180 32 -38 c121 -140 233 -401 250
-582 25 -280 73 -411 275 -752 34 -58 87 -152 118 -210 30 -58 56 -106 57
-108 2 -2 19 31 39 73 22 47 49 128 67 208 17 73 32 139 34 147 10 44 45 198
49 220 3 14 8 36 11 50 8 34 42 216 49 265 4 22 9 54 11 70 3 17 7 46 9 65 2
19 11 87 20 150 20 152 28 218 41 350 4 36 8 76 10 90 3 23 14 155 20 240 6
90 18 271 21 325 4 81 4 741 -1 787 -2 20 -6 90 -10 155 -3 65 -8 134 -10 153
-2 19 -7 64 -10 100 -28 287 -85 504 -196 735 -48 101 -94 155 -158 187 -89
44 -196 34 -332 -31 -47 -22 -221 -129 -307 -188 l-24 -17 9 70 c9 81 10 371
0 429 -36 222 -89 362 -178 476 -115 145 -246 219 -464 264 -48 10 -314 12
-385 4z"/>
<path d="M2037 3065 c-1 -1 -42 -5 -92 -9 -312 -22 -565 -125 -797 -326 -202
-174 -390 -466 -529 -820 -29 -74 -53 -136 -54 -137 -1 -2 -20 -5 -43 -8 -23
-3 -60 -7 -83 -10 -103 -13 -168 -43 -205 -97 -26 -37 -29 -49 -29 -123 0 -70
3 -86 25 -118 25 -36 88 -74 137 -83 16 -3 35 -7 43 -9 8 -2 31 -7 50 -10 48
-8 103 -23 115 -32 6 -5 17 -28 24 -53 44 -155 173 -430 263 -564 269 -398
641 -621 1083 -652 668 -46 1080 159 1425 709 71 113 170 305 237 457 l51 115
102 0 101 0 38 -110 c84 -244 180 -433 304 -601 76 -102 250 -271 347 -335
165 -110 342 -183 515 -214 17 -2 41 -7 55 -10 80 -16 332 -22 445 -11 120 13
152 18 248 42 360 90 625 301 859 682 58 95 168 318 219 445 47 118 45 115
151 131 130 20 196 50 231 106 18 28 22 50 22 115 0 142 -41 181 -229 219 -65
13 -121 28 -125 33 -4 4 -25 49 -46 98 -52 120 -172 354 -224 435 -23 36 -44
72 -48 80 -4 8 -12 21 -19 30 -7 8 -40 51 -73 96 -234 315 -552 494 -941 530
-139 14 -356 8 -488 -12 -65 -10 -191 -44 -274 -74 -402 -147 -722 -519 -939
-1095 l-38 -100 -93 -1 -93 -2 -112 227 c-248 503 -479 779 -778 929 -80 40
-210 87 -269 98 -17 3 -49 9 -71 14 -63 14 -386 34 -398 25z m244 -409 c116
-22 125 -24 223 -63 331 -131 594 -427 681 -768 10 -38 19 -79 20 -90 2 -11 6
-38 10 -60 7 -47 9 -248 1 -273 -3 -9 -7 -38 -10 -65 -12 -108 -103 -332 -180
-442 -33 -48 -128 -157 -165 -190 -19 -16 -46 -40 -60 -53 -38 -34 -149 -106
-206 -135 -59 -29 -206 -82 -255 -91 -19 -3 -46 -9 -60 -12 -14 -4 -92 -8
-175 -10 -118 -2 -169 1 -240 16 -485 101 -838 477 -910 970 -8 51 -8 254 -1
287 2 11 8 43 12 70 10 70 58 213 99 295 173 344 517 585 890 624 33 3 61 7
63 8 7 7 199 -6 263 -18z m3247 9 c29 -3 87 -15 128 -25 443 -113 777 -478
848 -925 14 -88 15 -307 1 -369 -59 -272 -155 -451 -336 -627 -166 -161 -397
-279 -598 -305 -20 -2 -47 -7 -61 -9 -33 -6 -204 -7 -255 -1 -378 44 -703 268
-883 607 -39 74 -95 224 -105 284 -3 17 -9 48 -13 70 -9 51 -11 265 -2 325 61
431 359 788 769 924 106 35 139 42 244 53 33 3 61 7 63 8 4 4 136 -3 200 -10z"/>
<path d="M2027 2333 c-2 -1 -21 -5 -43 -7 -58 -8 -171 -44 -238 -77 -281 -139
-459 -426 -458 -739 1 -58 3 -116 6 -130 31 -143 65 -231 129 -326 41 -62 122
-153 173 -194 87 -70 236 -139 359 -166 64 -14 250 -12 320 3 291 62 528 270
621 545 33 97 39 133 39 258 0 104 -6 167 -23 224 l-8 30 -27 -46 c-33 -57
-112 -129 -172 -157 -240 -113 -521 25 -580 283 -37 164 37 343 180 433 25 15
45 30 45 34 0 15 -309 47 -323 32z"/>
<path d="M5397 2334 c-1 -1 -26 -5 -55 -8 -259 -29 -513 -217 -629 -466 -57
-121 -75 -207 -76 -350 0 -146 16 -223 73 -347 48 -103 83 -153 162 -234 221
-226 541 -304 848 -207 213 68 408 244 499 452 60 138 84 347 55 486 -20 96
-23 100 -42 60 -27 -58 -115 -138 -189 -172 -193 -91 -437 -7 -534 184 -67
131 -58 298 22 415 38 55 96 109 139 130 l35 16 -31 13 c-17 7 -57 16 -90 20
-57 7 -182 12 -187 8z"/>
</g>
</svg>
